<?xml version="1.0" encoding="UTF-8"?>
<svg width="84px" height="94px" viewBox="0 0 84 94" version="1.1" xmlns="http://www.w3.org/2000/svg" xmlns:xlink="http://www.w3.org/1999/xlink">
    <!-- Generator: sketchtool 46.1 (44463) - http://www.bohemiancoding.com/sketch -->
    <title>D7BC786A-DA21-4887-9796-6A07BB66C312</title>
    <desc>Created with sketchtool.</desc>
    <defs>
        <linearGradient x1="11.575362%" y1="8.28007213%" x2="91.6564127%" y2="91.6365625%" id="linearGradient-1">
            <stop stop-color="#64ABEE" offset="0%"></stop>
            <stop stop-color="#3573D9" offset="100%"></stop>
        </linearGradient>
        <linearGradient x1="-8.15367769%" y1="7.92803142%" x2="95.4200556%" y2="72.5200725%" id="linearGradient-2">
            <stop stop-color="#FFB46B" offset="0%"></stop>
            <stop stop-color="#FC722F" offset="100%"></stop>
        </linearGradient>
    </defs>
    <g id="Page-1" stroke="none" stroke-width="1" fill="none" fill-rule="evenodd">
        <g id="3.0.首页-推荐策略" transform="translate(-30.000000, -944.000000)">
            <g id="Group-5" transform="translate(0.000000, 912.000000)">
                <g id="推荐策略" transform="translate(30.000000, 32.000000)">
                    <path d="M12.6036299,2 L12.6036299,9.22497094 L15.2924043,9.22497094 L15.2924043,11.5772871 C16.748831,9.11294357 18.2052359,5.92054647 19.6616627,2 L27.391889,3.00813548 L25.3506773,9.22497094 L40.3316157,9.22497094 L40.3316157,16.9540096 L34.4499218,16.9540096 L34.4499218,18.2981903 L39.8274705,18.2981903 L39.8274705,24.8510709 L34.4499218,24.8510709 L34.4499218,26.1952515 L39.8274705,26.1952515 L39.8274705,33.2521999 L34.4499218,33.2521999 L34.4499218,34.5963805 L40.6677125,34.5963805 L40.6677125,41.4853063 L24.030921,41.4853063 L24.030921,42.6614644 L16.1326463,42.6614644 L16.1326463,22.1627096 L15.6285011,22.4987548 L15.4604527,21.8266645 L15.6285011,27.8754773 L12.6036299,28.7155902 L12.6036299,37.620787 C12.6036299,39.637068 11.931443,40.9812352 10.5870491,41.6533289 C9.46672087,42.3254226 7.00203566,42.6614644 3.19291958,42.6614644 L0.672193595,34.9324257 C4.03317838,35.2684725 5.48958327,34.6523959 5.04145197,33.0841773 L5.04145197,29.7237257 L1.00829039,30.5638386 L0.336096798,22.6667774 L4.70535517,21.8266645 L4.70535517,17.1220322 L0.840241994,17.1220322 L0.840241994,9.22497094 L4.87340357,9.22497094 L4.87340357,2 L12.6036299,2 Z M27.391889,16.9540096 L24.030921,16.9540096 L24.030921,18.2981903 L27.391889,18.2981903 L27.391889,16.9540096 Z M12.6036299,17.1220322 L12.6036299,20.818529 L14.7882591,20.4824838 L13.2758235,17.1220322 L12.6036299,17.1220322 Z M27.391889,24.8510709 L24.030921,24.8510709 L24.030921,26.1952515 L27.391889,26.1952515 L27.391889,24.8510709 Z M27.2238406,33.2521999 L24.030921,33.2521999 L24.030921,34.5963805 L27.2238406,34.5963805 L27.2238406,33.2521999 Z M65.5146761,13.0894903 L64.8424825,14.9377387 L81.8153708,14.9377387 L81.8153708,20.818529 L61.4815146,20.818529 C61.1454161,21.378607 60.8653382,21.7146488 60.6412726,21.8266645 L80.639032,21.8266645 L80.639032,27.0353644 L77.1100156,29.3876806 L83.3278064,29.3876806 L83.3278064,35.2684709 L75.7656285,35.2684709 L75.7656285,38.796945 C75.8776613,40.8132261 75.2054744,42.0453794 73.7490477,42.4934418 C72.5166866,42.9415043 69.2677834,43.1095252 64.0022405,42.9975095 L61.9856597,37.4527644 C66.2429071,37.56478 68.1474366,37.2287382 67.6993053,36.4446289 L67.6993053,35.1004483 L57.6164014,35.1004483 L57.6164014,29.3876806 L67.8673537,29.3876806 L70.2200313,27.5394322 L59.8010306,27.7074548 L59.8010306,23.0028225 C58.904768,24.2349943 57.8404721,25.4671475 56.608111,26.6993193 L56.608111,42.829487 L48.7098362,42.829487 L48.7098362,33.4202225 C47.2534095,34.5403786 46.3011448,35.1564552 45.8530135,35.2684709 L41.4837551,27.0353644 C45.0688055,25.2431146 48.149662,23.1708569 50.726417,20.818529 L44.1725295,20.818529 L44.1725295,14.9377387 L55.2637238,14.9377387 L55.5998206,13.9296032 L51.7347074,13.9296032 L51.7347074,11.4092645 L43.1642391,11.4092645 L43.1642391,4.5203387 L51.7347074,4.5203387 L51.7347074,2.50406774 L59.128837,2.50406774 L59.128837,4.5203387 L66.6910149,4.5203387 L66.6910149,2.50406774 L74.7573381,2.50406774 L74.7573381,4.5203387 L82.8236612,4.5203387 L82.8236612,11.4092645 L74.5892897,11.4092645 L74.5892897,13.7615806 L66.6910149,13.7615806 L66.6910149,11.4092645 L59.128837,11.4092645 L59.128837,12.0813548 L65.5146761,13.0894903 Z M5.20950036,53.3385356 L12.9397267,53.6745808 C12.9397267,53.7865964 12.6036333,54.45868 11.9314363,55.6908517 L20.8380015,55.6908517 L20.8380015,57.8751453 C21.2861328,56.8670048 21.6782418,55.9148863 22.0143403,55.0187614 C22.4624716,54.0106209 22.7425494,53.5065582 22.8545822,53.5065582 L30.0806634,53.5065582 C30.0806634,53.6185738 29.8566011,54.3466644 29.4084698,55.6908517 L40.3316157,55.6908517 L40.3316157,62.9158227 L35.9623574,62.9158227 L36.2984542,65.1001162 L28.9043246,65.1001162 L28.5682278,62.9158227 L27.0557922,62.9158227 C26.6076609,63.5879164 26.0475052,64.4840278 25.3753082,65.604184 C25.0392097,65.9402308 24.871163,66.1642587 24.871163,66.2762743 L40.3316157,66.2762743 L40.3316157,72.8291549 L24.030921,72.8291549 L24.030921,74.005313 L36.634551,74.005313 L36.634551,80.8942388 C36.7465838,83.9186603 36.0183813,85.4868554 34.4499218,85.598871 C35.57025,85.9349178 37.6988418,86.3269666 40.8357609,86.7750291 L38.1469865,93.6639548 C32.0972139,92.5437987 27.3919058,90.8075827 24.030921,88.4552549 L24.030921,93.6639548 L16.8048399,93.6639548 L16.8048399,88.7913 C13.3318223,90.9195967 9.07463875,92.5437987 4.03316157,93.6639548 L0,87.4471194 C4.25724739,86.7750257 8.17833749,85.7108933 11.7633879,84.2546904 C13.7799788,83.1345342 15.2363837,81.846374 16.1326463,80.390171 L11.7633879,80.390171 L11.7633879,83.9186452 L4.03316157,83.9186452 L4.03316157,74.005313 L16.8048399,74.005313 L16.8048399,72.8291549 L0.504145197,72.8291549 L0.504145197,66.2762743 L4.53730677,66.2762743 L0.168048399,61.9076872 C2.29667209,58.9952812 3.97713928,56.138926 5.20950036,53.3385356 Z M18.8214207,63.0838453 L16.1326463,63.0838453 L16.4687431,65.2681388 L9.74680713,65.2681388 L9.41071034,63.0838453 L8.40241994,63.0838453 C7.50615733,64.4280326 6.66592374,65.492165 5.88169396,66.2762743 L17.1409367,66.2762743 L17.1409367,64.5960485 L19.4936143,64.5960485 L18.8214207,63.0838453 Z M24.030921,80.390171 L24.030921,81.3983065 C25.4873478,82.2944314 26.9437527,82.910508 28.4001794,83.2465549 L28.0640826,82.2384194 C29.072378,82.4624506 29.5205026,81.846374 29.4084698,80.390171 L24.030921,80.390171 Z M65.8507729,53.0024905 L73.9170961,53.6745808 L73.0768541,55.3548066 L81.8153708,55.3548066 L81.8153708,62.4117549 C80.8070754,64.5400516 79.6307484,66.4442885 78.2863544,68.1245227 C80.4149781,69.3566944 82.3195076,70.1407919 84,70.4768388 L80.8070804,77.197742 L81.6473224,77.197742 L81.6473224,94 L73.4129509,94 L73.4129509,92.9918645 L69.3797893,92.9918645 L69.3797893,94 L61.8176114,94 L61.8176114,78.8779678 L61.1454178,77.3657646 L61.1454178,90.6395484 L43.3322875,90.6395484 L43.3322875,54.8507388 L61.1454178,54.8507388 L61.1454178,59.3873485 C62.7138773,58.2671924 64.2823134,56.1389276 65.8507729,53.0024905 Z M72.5727089,62.7478001 L69.5478377,62.7478001 C69.995969,63.4198938 70.5001092,63.9799634 71.0602733,64.4280259 C71.6204374,64.0919791 72.1245776,63.5319094 72.5727089,62.7478001 Z M50.0542234,62.9158227 L48.8778846,62.9158227 L48.8778846,68.2925452 L50.0542234,68.2925452 L50.0542234,62.9158227 Z M55.5998206,62.9158227 L54.4234818,62.9158227 L54.4234818,68.2925452 L55.5998206,68.2925452 L55.5998206,62.9158227 Z M63.6661437,67.9565001 L61.9856597,69.3006807 L61.1454178,68.6285904 L61.1454178,71.3169517 C62.4898117,70.7568736 63.7221543,70.08479 64.8424825,69.3006807 L63.6661437,67.9565001 Z M67.5312569,77.0297194 L77.1100156,77.0297194 C75.7656217,76.6936726 73.9731234,75.8535681 71.7324669,74.5093807 C70.2760401,75.5175212 68.8756508,76.3576257 67.5312569,77.0297194 Z M48.8778846,76.5256517 L48.8778846,82.406442 L50.0542234,82.406442 L50.0542234,76.5256517 L48.8778846,76.5256517 Z M55.5998206,76.5256517 L54.4234818,76.5256517 L54.4234818,82.406442 L55.5998206,82.406442 L55.5998206,76.5256517 Z M73.5809993,84.0866678 L69.5478377,84.0866678 L69.5478377,85.4308484 L73.5809993,85.4308484 L73.5809993,84.0866678 Z" id="推荐-策略" fill="url(#linearGradient-1)"></path>
                    <path d="M35.4211254,3.41060513e-13 C37.0502296,3.28402513 37.9098545,5.23319941 38,5.84752285 C35.6777914,6.59153439 33.2268974,7.30902677 30.6473182,8 C29.6984038,6.13459406 28.8159644,4.23027307 28,2.28703704 L35.4211254,3.41060513e-13 Z" id="Path-3" fill="url(#linearGradient-2)"></path>
                </g>
            </g>
        </g>
    </g>
</svg>