<?xml version="1.0" encoding="UTF-8"?>
<svg width="74px" height="74px" viewBox="0 0 74 74" version="1.1" xmlns="http://www.w3.org/2000/svg" xmlns:xlink="http://www.w3.org/1999/xlink">
    <!-- Generator: sketchtool 44.1 (41455) - http://www.bohemiancoding.com/sketch -->
    <title>78E90D17-24A2-4DCD-97A5-BFFF63CCA4C1</title>
    <desc>Created with sketchtool.</desc>
    <defs></defs>
    <g id="外汇移动web1.0" stroke="none" stroke-width="1" fill="none" fill-rule="evenodd">
        <g id="6.6.3.营业执照" transform="translate(-338.000000, -406.000000)">
            <g id="上传营业执照" transform="translate(100.000000, 315.000000)">
                <g id="Group-2" transform="translate(193.000000, 93.000000)">
                    <g id="上传营业执照" transform="translate(47.000000, 0.000000)">
                        <path d="M34,34 L21.5,34 C20.6715729,34 20,34.6715729 20,35.5 C20,36.3284271 20.6715729,37 21.5,37 L21.5,37 L34,37 L34,49.5 C34,50.3284271 34.6715729,51 35.5,51 C36.3284271,51 37,50.3284271 37,49.5 L37,37 L49.5,37 C50.3284271,37 51,36.3284271 51,35.5 C51,34.6715729 50.3284271,34 49.5,34 L37,34 L37,21.5 C37,20.6715729 36.3284271,20 35.5,20 C34.6715729,20 34,20.6715729 34,21.5 L34,21.5 L34,34 Z" id="Combined-Shape" fill="#094290"></path>
                        <circle id="Oval-14" stroke="#094290" stroke-width="3" cx="35" cy="35" r="35"></circle>
                    </g>
                </g>
            </g>
        </g>
    </g>
</svg>