<?xml version="1.0" encoding="UTF-8"?>
<svg width="33px" height="34px" viewBox="0 0 33 34" version="1.1" xmlns="http://www.w3.org/2000/svg" xmlns:xlink="http://www.w3.org/1999/xlink">
    <!-- Generator: sketchtool 44.1 (41455) - http://www.bohemiancoding.com/sketch -->
    <title>1AE093BD-4A6A-4F4B-85C7-1BABDB446BB7</title>
    <desc>Created with sketchtool.</desc>
    <defs></defs>
    <g id="外汇移动web1.0" stroke="none" stroke-width="1" fill="none" fill-rule="evenodd">
        <g id="3.1.1.代理商主页" transform="translate(-273.000000, -1630.000000)" fill="#FFFFFF">
            <g id="分享代理商" transform="translate(0.000000, 1597.000000)">
                <g id="Group-7" transform="translate(273.000000, 27.000000)">
                    <g id="分享" transform="translate(0.000000, 6.000000)">
                        <polygon id="Rectangle-2" points="8.11917739 24.1130441 30.1126765 1.3381091 31.8989459 3.06308942 9.90544681 25.8380244"></polygon>
                        <rect id="Rectangle-6" x="21.7768142" y="0.23835479" width="11.1744301" height="2.4832067" rx="1.24160335"></rect>
                        <path d="M32.9512444,1.47995814 L32.9512444,10.1711816 C32.9512444,10.8569002 32.3953596,11.4127849 31.709641,11.4127849 C31.0239224,11.4127849 30.4680377,10.8569002 30.4680377,10.1711816 L30.4680377,1.47995814 C30.4680377,0.794239544 31.0239224,0.23835479 31.709641,0.23835479 C32.3953596,0.23835479 32.9512444,0.794239544 32.9512444,1.47995814 Z" id="Rectangle-6-Copy"></path>
                        <path d="M19.9144092,3.96316484 L0.048755627,3.96316484 L0.048755627,33.7616452 L29.847236,33.7616452 L29.847236,13.27519 L27.3640293,13.27519 L27.3640293,31.2784385 L2.53196232,31.2784385 L2.53196232,6.44637153 L19.9144092,6.44637153 L19.9144092,3.96316484 Z" id="Combined-Shape"></path>
                    </g>
                </g>
            </g>
        </g>
    </g>
</svg>