<?xml version="1.0" encoding="UTF-8"?>
<svg width="43px" height="33px" viewBox="0 0 43 33" version="1.1" xmlns="http://www.w3.org/2000/svg" xmlns:xlink="http://www.w3.org/1999/xlink">
    <!-- Generator: sketchtool 44.1 (41455) - http://www.bohemiancoding.com/sketch -->
    <title>16CDE13E-BAC4-408F-BEBA-BCF5E72BD5E3</title>
    <desc>Created with sketchtool.</desc>
    <defs></defs>
    <g id="外汇移动web1.0" stroke="none" stroke-width="1" fill="none" fill-rule="evenodd">
        <g id="6.6.代理信息" transform="translate(-30.000000, -1038.000000)" fill-rule="nonzero" fill="#1CB1EC">
            <g id="信息" transform="translate(0.000000, 215.000000)">
                <g id="切图" transform="translate(30.000000, 45.000000)">
                    <g id="网址-(1)" transform="translate(0.000000, 778.000000)">
                        <path d="M8.03942228,19.0684096 C7.87675207,18.2300548 7.7940142,17.3658105 7.7940142,16.5000979 C7.7940142,12.1890067 9.83829385,8.34378241 13.0133897,5.87203076 C13.2843427,6.60653323 13.7484819,7.38175446 14.5352052,7.6747626 C14.663028,7.72257769 14.7825328,7.7706375 14.8979031,7.81678863 C15.5140811,8.0634499 16.151325,8.31892055 17.222192,8.31892055 C17.4052883,8.35308119 17.7868373,8.70736312 18.0584793,9.0708949 C18.1988531,9.80725713 18.3647226,10.8306078 18.3647226,11.2180716 C18.3647226,11.8261112 18.4765983,12.4995357 18.5752833,13.0939209 C18.6189409,13.3559495 18.6616634,13.6106861 18.6910966,13.8439865 C18.7642366,14.4261365 19.1457856,14.8785447 19.6863626,15.024437 C19.8176308,15.0600659 19.9430419,15.0771462 20.0642693,15.0771462 C20.904691,15.0771462 21.5392771,14.2578294 22.4410754,13.092991 C22.6126051,12.870947 22.8420168,12.5747577 22.9458206,12.4596001 C23.003998,12.4210348 23.0773349,12.3790926 23.1573165,12.3307881 C23.7732484,11.9604046 24.8043461,11.3406681 24.9614053,10.2490452 C25.0141685,9.88355577 25.0040785,9.3267571 24.9835048,8.44787943 C24.9722336,7.97330117 24.9548098,7.23351305 24.9756297,6.852901 C25.2305863,6.64113445 25.7672257,6.28171371 26.2791077,5.98283266 L28.8490016,5.26408907 C31.4655555,6.9892009 33.4790238,9.59881857 34.3932254,12.7231949 C35.4076286,12.3930785 35.0147732,12.5089899 37.2882628,11.88577 C35.2425066,4.89336306 28.6936651,0.0098121913 21.3627762,0.0098121913 C12.2182499,0.0098121913 4.77868447,7.40749737 4.77868447,16.5002448 C4.77868447,17.5562389 4.87978117,18.6117926 5.07902138,19.6375414 C6.59290646,19.4608275 6.51217659,19.471758 8.03942228,19.0684096 Z M25.4137811,3.63034956 C25.326958,3.65721802 25.2432358,3.69284687 25.1642878,3.73748081 C22.9776656,4.97695378 22.7217246,5.61333008 22.6255498,5.85245449 C22.4393035,6.31484652 22.435366,6.98166399 22.4714438,8.50641249 C22.4807463,8.90997776 22.4945277,9.48679323 22.4832072,9.77030689 C22.3389451,9.90303413 22.0211352,10.0943435 21.8569885,10.1929101 C21.6704961,10.3051312 21.5080719,10.4066343 21.3954087,10.4905676 C21.2337228,10.6106192 21.0849817,10.7691872 20.8727476,11.030286 C20.8317478,10.1499401 20.536825,8.64594251 20.4742671,8.33414115 C20.4445878,8.1862912 20.387887,8.04499931 20.3074132,7.91692143 C20.08755,7.56704415 18.9065299,5.82171977 17.2513791,5.82171977 C16.6418457,5.82171977 16.3557332,5.70729634 15.8364683,5.49915142 C15.7432467,5.46180963 15.6475149,5.42348907 15.5474026,5.38497271 C15.4396613,5.21935729 15.3048985,4.83854943 15.2215208,4.47110242 C17.0665602,3.53594292 19.1538084,3.00797033 21.3627762,3.00797033 C22.7607556,3.00792135 24.1238876,3.22507135 25.4137811,3.63034956 Z M42.9291536,11.5894828 C42.6656328,10.4607627 41.6811458,9.6404671 40.0041908,9.15101086 C39.6559212,10.2091896 39.3454754,11.0393706 39.2965139,11.54803 C40.3112708,11.8442193 40.4792075,12.1515671 40.4807333,12.151665 C40.5595336,13.1840208 35.1046431,17.2062148 22.3438671,20.1542087 C9.5794489,23.1036218 2.90056976,21.8821591 2.51680587,20.927668 C2.51655975,20.9237527 2.53324515,20.5035965 3.54421218,19.6579007 C3.08205305,19.0779286 3.52307004,19.651349 1.92661577,17.7459331 C0.409377748,19.015211 -0.215610513,20.2751901 0.0688285705,21.4902906 C0.496200857,23.3187653 2.71835947,24.3000758 6.84934586,24.4772413 C6.86445622,24.5089549 6.8803049,24.5404238 6.89787622,24.5715012 C9.8341595,29.7642106 15.3769067,32.9903347 21.3628256,32.9903347 C30.2047508,32.9903347 37.4629919,26.137311 37.9229966,17.3739836 C41.7265753,15.3551295 43.3658283,13.4589698 42.9291536,11.5894828 Z M20.7530952,29.9779837 L21.9360349,29.0043568 L24.0306168,28.7637642 C24.441156,28.7164385 24.802082,28.4719306 24.9962035,28.1088883 L25.4484315,27.2622136 L25.8768866,28.137176 L25.5878209,29.3279529 C24.2573214,29.7592676 22.8369472,29.9920297 21.3628254,29.9920297 C21.1588602,29.9920786 20.9556331,29.9870867 20.7530952,29.9779837 Z M28.4590854,28.0094896 C28.4614479,27.8163205 28.4198083,27.6238856 28.3336743,27.447699 L26.6275321,23.960525 C26.4206629,23.5379218 25.9927,23.2665944 25.5200951,23.257834 C25.0359728,23.2548976 24.6099787,23.5057188 24.3881467,23.9210299 L23.0866374,26.3570548 L21.277922,26.564955 C21.0364515,26.5927533 20.8082702,26.6894113 20.6207934,26.8435746 L17.8719869,29.1059088 C17.7497751,29.2064331 17.6518777,29.3253101 17.5784423,29.455052 C14.7174155,28.6264364 12.1806463,26.8747008 10.3991492,24.4506175 C14.0882928,24.2654258 18.4353033,23.6223935 22.9124499,22.5883248 C27.28092,21.5788733 31.3731707,20.2900192 34.7216174,18.8801346 C34.032447,22.7568767 31.6927032,26.0392826 28.4590854,28.0094896 Z" id="Shape"></path>
                    </g>
                </g>
            </g>
        </g>
    </g>
</svg>