<?xml version="1.0" encoding="UTF-8"?>
<svg width="40px" height="42px" viewBox="0 0 40 42" version="1.1" xmlns="http://www.w3.org/2000/svg" xmlns:xlink="http://www.w3.org/1999/xlink">
    <!-- Generator: sketchtool 44.1 (41455) - http://www.bohemiancoding.com/sketch -->
    <title>945CC036-5A8B-430D-B123-3C4B162EED3F</title>
    <desc>Created with sketchtool.</desc>
    <defs></defs>
    <g id="外汇移动web1.0" stroke="none" stroke-width="1" fill="none" fill-rule="evenodd">
        <g id="6.6.代理信息" transform="translate(-31.000000, -906.000000)" fill-rule="nonzero" fill="#19B0EB">
            <g id="信息" transform="translate(0.000000, 215.000000)">
                <g id="切图" transform="translate(30.000000, 45.000000)">
                    <g id="QQ-(3)" transform="translate(1.000000, 646.000000)">
                        <path d="M39.9278613,27.5785953 L39.9278613,27.4587291 C39.2175723,23.2634114 36.6131792,20.3866221 35.4293642,19.1879599 C35.6661272,16.0714381 34.7190751,14.5131773 34.0087861,13.9138462 C33.4168786,2.88615385 24.8934104,0.00936454849 20.2765318,0.00936454849 L19.8030058,0.00936454849 C15.0677457,0.00936454849 6.54427746,2.88615385 5.95236994,13.9138462 C5.24208092,14.6330435 4.2950289,16.0714381 4.53179191,19.1879599 C3.46635838,20.2667559 0.861965318,23.2634114 0.0332947977,27.4587291 L0.0332947977,27.5785953 C-0.0850867052,29.2567224 0.0332947977,32.1335117 1.80901734,32.7328428 C2.04578035,32.852709 2.28254335,32.852709 2.40092486,32.852709 C3.34797688,32.852709 4.2950289,32.1335117 5.12369942,31.0547157 C5.47884393,31.773913 5.95236994,32.4931104 6.42589595,33.3321739 C5.12369942,34.1712375 3.70312139,35.7294983 3.93988439,37.8870903 C3.93988439,38.246689 4.0582659,39.2056187 5.00531792,40.0446823 C6.30751445,41.3632107 8.55676301,41.9625418 11.8714451,41.9625418 L12.7001156,41.9625418 C13.2920231,41.9625418 17.7905202,41.4830769 19.9213873,39.4453512 L20.2765318,39.4453512 C22.4073988,41.4830769 27.0242775,41.8426756 27.616185,41.9625418 L28.326474,41.9625418 C31.5227746,41.9625418 33.8904046,41.2433445 35.0742197,40.0446823 C35.9028902,39.0857525 36.1396532,38.246689 36.1396532,37.8870903 C36.3764162,35.7294983 34.9558382,34.1712375 33.6536416,33.3321739 C34.2455491,32.4931104 34.6006936,31.773913 34.9558382,31.0547157 C35.7845087,32.0136455 36.7315607,32.852709 37.6786127,32.852709 C37.9153757,32.852709 38.1521387,32.852709 38.2705202,32.7328428 C39.9278613,32.0136455 40.0462428,29.2567224 39.9278613,27.5785953 L39.9278613,27.5785953 Z M36.0412135,29.535294 C35.9315583,29.4242636 35.602593,29.2022028 35.2736276,28.7580812 C34.8350071,28.2029292 34.2867314,27.9808684 33.6288007,27.9808684 L33.4094904,27.9808684 C32.6419045,28.0918988 32.0936289,28.5360204 31.7646635,29.2022028 C31.4356981,29.8683852 30.9970776,30.5345676 30.6681122,31.0897196 C30.3391469,31.5338412 30.2294917,32.2000236 30.3391469,32.7551756 C30.448802,33.3103276 30.7777674,33.8654796 31.326043,34.1985708 C32.3129391,34.7537228 32.7515597,35.5309356 32.6419045,36.3081484 L32.6419045,36.4191788 C32.6419045,36.4191788 32.6419045,36.6412396 32.3129391,36.9743308 C31.8743186,37.4184524 30.6681122,38.1956652 27.5977687,38.1956652 L27.0494931,38.1956652 C25.4046662,38.0846348 22.7729431,37.5294828 21.6763919,36.5302092 C21.2377713,36.0860876 20.6894957,35.9750572 20.1412201,35.9750572 L19.8122547,35.9750572 C19.2639791,35.9750572 18.7157034,36.197118 18.2770829,36.5302092 C17.1805317,37.5294828 14.5488086,38.0846348 12.9039817,38.1956652 L12.246051,38.1956652 C9.06605228,38.1956652 7.85984589,37.4184524 7.53088051,36.9743308 C7.20191513,36.6412396 7.20191513,36.4191788 7.20191513,36.4191788 L7.20191513,36.3081484 C7.09226,35.5309356 7.53088051,34.7537228 8.51777665,34.1985708 C9.06605228,33.8654796 9.39501766,33.3103276 9.50467279,32.7551756 C9.61432792,32.2000236 9.50467279,31.5338412 9.17570741,31.0897196 C8.7370869,30.5345676 8.40812152,29.8683852 8.07915614,29.2022028 C7.75019076,28.5360204 7.09226,28.0918988 6.43432924,27.9808684 L6.21501899,27.9808684 C5.55708823,27.9808684 5.00881259,28.3139596 4.57019209,28.7580812 C4.24122671,29.2022028 4.02191645,29.4242636 3.8026062,29.535294 C3.69295107,29.2022028 3.47364082,28.42499 3.58329595,27.2036556 C4.13157158,23.983774 6.21501899,21.6521356 7.09226,20.8749228 C7.53088051,20.4308012 7.75019076,19.7646188 7.75019076,19.0984364 C7.64053564,16.8778284 8.18881127,16.211646 8.40812152,15.9895852 C8.84674203,15.5454636 9.06605228,15.101342 9.17570741,14.4351596 C9.61432792,4.10933237 18.7157034,3.77624117 19.7025996,3.77624117 L20.1412201,3.77624117 C21.0184611,3.77624117 23.9791495,3.88727157 26.6108726,5.88581877 C29.1329405,7.77333557 30.448802,10.660126 30.6681122,14.4351596 C30.6681122,14.9903116 30.9970776,15.5454636 31.4356981,15.9895852 C31.6550084,16.211646 32.203284,16.8778284 32.0936289,19.0984364 C32.0936289,19.7646188 32.3129391,20.4308012 32.7515597,20.8749228 C33.6288007,21.763166 35.602593,24.0948044 36.2605237,27.2036556 C36.3701788,28.5360204 36.2605237,29.2022028 36.0412135,29.535294 Z" id="Shape"></path>
                    </g>
                </g>
            </g>
        </g>
    </g>
</svg>