<?xml version="1.0" encoding="UTF-8"?>
<svg width="41px" height="48px" viewBox="0 0 41 48" version="1.1" xmlns="http://www.w3.org/2000/svg" xmlns:xlink="http://www.w3.org/1999/xlink">
    <!-- Generator: sketchtool 44.1 (41455) - http://www.bohemiancoding.com/sketch -->
    <title>E4E5279F-E2DA-47A0-8415-9381BAD03958</title>
    <desc>Created with sketchtool.</desc>
    <defs></defs>
    <g id="外汇移动web1.0" stroke="none" stroke-width="1" fill="none" fill-rule="evenodd">
        <g id="6.6.代理信息" transform="translate(-30.000000, -380.000000)">
            <g id="信息" transform="translate(0.000000, 215.000000)">
                <g id="切图" transform="translate(30.000000, 45.000000)">
                    <g id="地址" transform="translate(0.000000, 120.000000)">
                        <path d="M20.4992022,45.4274033 C21.1517701,44.8794986 21.7725777,44.3585389 21.7373083,44.3881671 C22.7289705,43.555119 23.4655593,42.9328976 24.1722224,42.3297868 C25.9564379,40.807025 27.3839466,39.5445239 28.6705666,38.3393707 C35.4562219,31.9833726 38.5,26.8813178 38.5,20.7679045 C38.5,10.826779 30.4411255,2.76790454 20.5,2.76790454 C10.5588745,2.76790454 2.5,10.826779 2.5,20.7679045 C2.5,26.9346976 5.60305016,32.0818943 12.5296158,38.5304848 C13.7960466,39.7095242 15.1972404,40.9446442 16.9429818,42.4319935 C17.6349694,43.0215581 18.3564243,43.6301935 19.3229883,44.441242 C19.3190071,44.4379014 19.8900007,44.9165202 20.4992022,45.4274033 Z" id="Oval-10" stroke="#14EF86" stroke-width="4"></path>
                        <path d="M20.5,28 C16.3578644,28 13,24.6421356 13,20.5 C13,16.3578644 16.3578644,13 20.5,13 C24.6421356,13 28,16.3578644 28,20.5 C28,24.6421356 24.6421356,28 20.5,28 Z M20.5,24.4210526 C22.6655376,24.4210526 24.4210526,22.6655376 24.4210526,20.5 C24.4210526,18.3344624 22.6655376,16.5789474 20.5,16.5789474 C18.3344624,16.5789474 16.5789474,18.3344624 16.5789474,20.5 C16.5789474,22.6655376 18.3344624,24.4210526 20.5,24.4210526 Z" id="Combined-Shape" fill="#14C16F"></path>
                    </g>
                </g>
            </g>
        </g>
    </g>
</svg>