<?xml version="1.0" encoding="UTF-8"?>
<svg width="236px" height="236px" viewBox="0 0 236 236" version="1.1" xmlns="http://www.w3.org/2000/svg" xmlns:xlink="http://www.w3.org/1999/xlink">
    <!-- Generator: sketchtool 44.1 (41455) - http://www.bohemiancoding.com/sketch -->
    <title>5407CACC-9999-4B0F-B51E-99050779BD4F</title>
    <desc>Created with sketchtool.</desc>
    <defs></defs>
    <g id="外汇移动web1.0" stroke="none" stroke-width="1" fill="none" fill-rule="evenodd">
        <g id="通用性规范" transform="translate(-2464.000000, -499.000000)">
            <g id="暂无记录" transform="translate(2466.000000, 501.000000)">
                <g id="暂无数据">
                    <path d="M51.5280899,116 L70.988764,116 C72.0933335,116 72.988764,116.895431 72.988764,118 L72.988764,166.134831 C72.988764,167.239401 72.0933335,168.134831 70.988764,168.134831 L51.5280899,168.134831 C50.4235204,168.134831 49.5280899,167.239401 49.5280899,166.134831 L49.5280899,118 C49.5280899,116.895431 50.4235204,116 51.5280899,116 L51.5280899,116 Z M88.0224719,92.5393258 L107.483146,92.5393258 C108.587716,92.5393258 109.483146,93.4347563 109.483146,94.5393258 L109.483146,166.134831 C109.483146,167.239401 108.587716,168.134831 107.483146,168.134831 L88.0224719,168.134831 C86.9179024,168.134831 86.0224719,167.239401 86.0224719,166.134831 L86.0224719,94.5393258 C86.0224719,93.4347563 86.9179024,92.5393258 88.0224719,92.5393258 Z M124.516854,63.8651685 L143.977528,63.8651685 C145.082098,63.8651685 145.977528,64.760599 145.977528,65.8651685 L145.977528,166.134831 C145.977528,167.239401 145.082098,168.134831 143.977528,168.134831 L124.516854,168.134831 C123.412284,168.134831 122.516854,167.239401 122.516854,166.134831 L122.516854,65.8651685 L122.516854,65.8651685 C122.516854,64.760599 123.412284,63.8651685 124.516854,63.8651685 Z M161.011236,116 L180.47191,116 C181.57648,116 182.47191,116.895431 182.47191,118 L182.47191,166.134831 C182.47191,167.239401 181.57648,168.134831 180.47191,168.134831 L161.011236,168.134831 C159.906666,168.134831 159.011236,167.239401 159.011236,166.134831 L159.011236,118 C159.011236,116.895431 159.906666,116 161.011236,116 Z" id="Combined-Shape" fill="#E0E0E0"></path>
                    <circle id="Oval-2" stroke="#E0E0E0" stroke-width="4" cx="116" cy="116" r="116"></circle>
                    <g id="Group-4" transform="translate(52.134831, 41.707865)" stroke="#C1C1C1" stroke-width="3">
                        <polyline id="Path-45" points="9.1764892 57.1219924 45.7175167 86.1353762 82.382116 7.22341135 119.076624 56.9496216"></polyline>
                        <circle id="Oval-13" fill="#FFFFFF" cx="9" cy="57" r="9"></circle>
                        <circle id="Oval-13-Copy" fill="#FFFFFF" cx="45" cy="86" r="9"></circle>
                        <circle id="Oval-13-Copy-2" fill="#FFFFFF" cx="82" cy="9" r="9"></circle>
                        <circle id="Oval-13-Copy-3" fill="#FFFFFF" cx="118" cy="57" r="9"></circle>
                    </g>
                </g>
            </g>
        </g>
    </g>
</svg>