<?xml version="1.0" encoding="UTF-8"?>
<svg width="111px" height="30px" viewBox="0 0 111 30" version="1.1" xmlns="http://www.w3.org/2000/svg" xmlns:xlink="http://www.w3.org/1999/xlink">
    <!-- Generator: sketchtool 44.1 (41455) - http://www.bohemiancoding.com/sketch -->
    <title>D2DF8F33-99DB-489F-8E92-65094CAB68AD</title>
    <desc>Created with sketchtool.</desc>
    <defs></defs>
    <g id="外汇移动web1.0" stroke="none" stroke-width="1" fill="none" fill-rule="evenodd">
        <g id="3.1.代理商列表" transform="translate(-179.000000, -364.000000)">
            <g id="内容" transform="translate(0.000000, 324.000000)">
                <g id="内容1" transform="translate(30.000000, 30.000000)">
                    <g id="认证" transform="translate(149.000000, 10.000000)">
                        <rect id="Rectangle-33" fill="#31BE23" x="0" y="0" width="111" height="30" rx="2"></rect>
                        <text id="认证机构" font-family="PingFangSC-Regular, PingFang SC" font-size="20" font-weight="normal" letter-spacing="-0.300000072" fill="#FFFFFF">
                            <tspan x="25" y="22">认证机构</tspan>
                        </text>
                        <g transform="translate(5.000000, 4.000000)" id="Shape" fill-rule="nonzero" fill="#FFFFFF">
                            <path d="M8.95534036,22 C5.82585263,22 0.0043228,17.0903333 0.0043228,12.4474167 L0.0043228,3.19916667 L0.894484211,3.18358333 C0.913347368,3.18358333 2.90026667,3.1405 4.95006316,2.288 C7.05285615,1.41166667 8.40920701,0.406083326 8.42178246,0.396916674 L8.95264562,0 L9.48889825,0.396916674 C9.50147368,0.407 10.8578246,1.41166667 12.9606175,2.288 C15.010414,3.1405 17.0745825,3.18358333 17.0952421,3.18358333 L17.9809123,3.19916667 L17.9854035,12.4474167 C17.9854035,17.0894167 12.0875228,22 8.95534036,22 L8.95534036,22 L8.95534036,22 L8.95534036,22 Z M1.81159299,4.972 L1.81159299,12.4474167 C1.81159299,16.0370833 6.88218947,20.1465 8.95534036,20.1465 C11.0293895,20.1465 16.1763368,16.0370833 16.1763368,12.4474167 L16.1763368,4.972 C15.2897684,4.87391667 13.7753263,4.6255 12.2815439,4.004 C10.7500351,3.366 9.58770526,2.67208333 8.95534036,2.25866667 C8.32387368,2.67208333 7.16064562,3.366 5.63093333,4.004 C4.13625263,4.62641667 2.69726316,4.87391667 1.81159299,4.972 L1.81159299,4.972 L1.81159299,4.972 L1.81159299,4.972 Z M8.47657543,15.9225 L4.67609825,12.60325 L5.84471579,11.1934167 L8.28345263,13.321 L12.9103158,7.85583333 L14.2765474,9.07133333 L8.47657543,15.9225 L8.47657543,15.9225 L8.47657543,15.9225 Z"></path>
                        </g>
                    </g>
                </g>
            </g>
        </g>
    </g>
</svg>