<?xml version="1.0" encoding="UTF-8"?>
<svg width="21px" height="21px" viewBox="0 0 21 21" version="1.1" xmlns="http://www.w3.org/2000/svg" xmlns:xlink="http://www.w3.org/1999/xlink">
    <!-- Generator: sketchtool 46.1 (44463) - http://www.bohemiancoding.com/sketch -->
    <title>233A9B9D-38AD-4825-A615-A60AA4E196D1</title>
    <desc>Created with sketchtool.</desc>
    <defs></defs>
    <g id="Symbols" stroke="none" stroke-width="1" fill="none" fill-rule="evenodd">
        <g id="分享" transform="translate(-3.000000, -4.000000)" fill="#FFFFFF">
            <path d="M22,7.30237451 L10.6526439,18.6497306 L9.23843031,17.2355171 L20.4739474,6 L14,6 L14,4 L22,4 C23.1045695,4 24,4.8954305 24,6 L24,12.5 L22,12.5 L22,7.30237451 Z M11,4 L11,6 L6,6 C5.44771525,6 5,6.44771525 5,7 L5,22 C5,22.5522847 5.44771525,23 6,23 L21,23 C21.5522847,23 22,22.5522847 22,22 L22,15.5 L24,15.5 L24,23 C24,24.1045695 23.1045695,25 22,25 L5,25 C3.8954305,25 3,24.1045695 3,23 L3,6 L3,6 C3,4.8954305 3.8954305,4 5,4 L5,4 L11,4 Z"></path>
        </g>
    </g>
</svg>