<?xml version="1.0" encoding="UTF-8"?>
<svg width="80px" height="80px" viewBox="0 0 80 80" version="1.1" xmlns="http://www.w3.org/2000/svg" xmlns:xlink="http://www.w3.org/1999/xlink">
    <!-- Generator: sketchtool 46.1 (44463) - http://www.bohemiancoding.com/sketch -->
    <title>00048F67-D0C4-48C3-8BFD-D50D898D91EC</title>
    <desc>Created with sketchtool.</desc>
    <defs>
        <rect id="path-1" x="0" y="0" width="80" height="80" rx="4"></rect>
        <linearGradient x1="14.2625126%" y1="-14.4763016%" x2="81.9720172%" y2="77.7145149%" id="linearGradient-3">
            <stop stop-color="#FB6666" stop-opacity="0.493121603" offset="0%"></stop>
            <stop stop-color="#F53636" offset="100%"></stop>
        </linearGradient>
        <linearGradient x1="14.2625126%" y1="-14.4763016%" x2="81.9720172%" y2="77.7145149%" id="linearGradient-4">
            <stop stop-color="#FFB2B2" stop-opacity="0.64489923" offset="0%"></stop>
            <stop stop-color="#F53636" offset="100%"></stop>
        </linearGradient>
    </defs>
    <g id="Page-1" stroke="none" stroke-width="1" fill="none" fill-rule="evenodd">
        <g id="2.0.代理商首页-喊单" transform="translate(-30.000000, -1126.000000)">
            <g id="喊单" transform="translate(0.000000, 1106.000000)">
                <g transform="translate(30.000000, 20.000000)" id="bg_handan_bg_default">
                    <g>
                        <mask id="mask-2" fill="white">
                            <use xlink:href="#path-1"></use>
                        </mask>
                        <use id="Mask" fill="#F53636" xlink:href="#path-1"></use>
                        <circle id="Oval-2" fill="url(#linearGradient-3)" mask="url(#mask-2)" cx="80" cy="88" r="26"></circle>
                        <circle id="Oval-2-Copy" fill="url(#linearGradient-4)" mask="url(#mask-2)" cx="10" cy="20" r="26"></circle>
                        <path d="M17.536,28.064 L17.536,54.0070916 L9.856,54.0070916 L9.856,28.064 L17.536,28.064 Z M12.832,51.1032172 L14.592,51.1032172 L14.592,31.136 L12.832,31.136 L12.832,51.1032172 Z M23.04,34.848 L28.672,34.848 L28.672,37.6 L23.04,37.6 L23.04,34.848 Z M23.008,39.296 L28.992,39.296 L28.992,49.408 L23.008,49.408 L23.008,39.296 Z M26.752,47.04 L26.752,41.664 L25.28,41.664 L25.28,47.04 L26.752,47.04 Z M35.168,34.912 L37.824,36.032 C36.896,40.768 35.616,44.672 34.016,47.776 L34.304,48.896 C34.816,50.624 35.328,51.552 35.776,51.648 C36.032,51.616 36.2583544,51.04 36.3223544,47.712 L38.784,47.712 C38.784,52.448 37.824,54.848 35.968,54.88 C34.88,54.88 33.92,53.984 33.024,52.256 C32.768,51.808 32.512,51.264 32.32,50.624 C31.04,52.416 29.6,53.856 28.032,54.944 L26.176,52.544 C28.192,51.2 29.888,49.344 31.264,46.912 C30.976,45.632 30.688,44.192 30.432,42.592 C29.92,39.648 29.6,36.416 29.44,32.896 L21.984,32.896 L21.984,53.9933881 C19.144589,53.9933881 21.984,53.9933881 19.136,53.9933881 L19.136,29.888 L29.312,29.888 C29.248,28.608 29.248,27.296 29.248,25.952 L32.192,25.952 C32.192,27.232 32.192,28.544 32.256,29.888 L34.368,29.888 C33.92,28.864 33.44,27.936 32.928,27.072 L35.52,26.624 C36,27.584 36.448,28.672 36.896,29.888 L38.048,29.888 L38.048,32.896 L32.352,32.896 C32.448,35.2 32.608,37.6 32.832,40.064 C32.928,41.056 33.024,41.984 33.152,42.816 C33.984,40.448 34.656,37.824 35.168,34.912 Z M44.512,30.464 L50.912,30.464 C50.016,29.152 49.088,27.968 48.128,26.912 L50.912,25.568 C52,26.752 53.376,29.024 54.336,30.464 L58.304,30.464 C59.296,28.864 60.16,27.2 60.896,25.408 L64.128,26.56 C63.424,28 62.624,29.312 61.792,30.464 L67.488,30.464 L67.488,44.384 L57.664,44.384 L57.664,46.752 L70.336,46.752 L70.336,49.888 L57.664,49.888 L57.664,55.488 L54.336,55.488 L54.336,49.888 L41.664,49.888 L41.664,46.752 L54.336,46.752 L54.336,44.384 L44.512,44.384 L44.512,30.464 Z M64.256,41.44 L64.256,38.784 L57.664,38.784 L57.664,41.44 L64.256,41.44 Z M54.336,41.44 L54.336,38.784 L47.744,38.784 L47.744,41.44 L54.336,41.44 Z M47.744,35.968 L54.336,35.968 L54.336,33.376 L47.744,33.376 L47.744,35.968 Z M57.664,33.376 L57.664,35.968 L64.256,35.968 L64.256,33.376 L57.664,33.376 Z" id="喊单" fill="#FFFFFF" mask="url(#mask-2)"></path>
                    </g>
                </g>
            </g>
        </g>
    </g>
</svg>