<?xml version="1.0" encoding="UTF-8"?>
<svg width="750px" height="200px" viewBox="0 0 750 200" version="1.1" xmlns="http://www.w3.org/2000/svg" xmlns:xlink="http://www.w3.org/1999/xlink">
    <!-- Generator: sketchtool 44.1 (41455) - http://www.bohemiancoding.com/sketch -->
    <title>531B33D5-E6B2-482F-951F-12289892F40E</title>
    <desc>Created with sketchtool.</desc>
    <defs>
        <rect id="path-1" x="0" y="0" width="750" height="200"></rect>
        <ellipse id="path-3" cx="166.11148" cy="-22.4356737" rx="328.007241" ry="138.713842"></ellipse>
        <filter x="-1.1%" y="-1.8%" width="102.1%" height="105.0%" filterUnits="objectBoundingBox" id="filter-4">
            <feOffset dx="0" dy="2" in="SourceAlpha" result="shadowOffsetOuter1"></feOffset>
            <feGaussianBlur stdDeviation="2" in="shadowOffsetOuter1" result="shadowBlurOuter1"></feGaussianBlur>
            <feColorMatrix values="0 0 0 0 0.663463348   0 0 0 0 0.218044806   0 0 0 0 0.961734694  0 0 0 1 0" type="matrix" in="shadowBlurOuter1"></feColorMatrix>
        </filter>
        <linearGradient x1="50%" y1="122.401682%" x2="50%" y2="-10.3127767%" id="linearGradient-5">
            <stop stop-color="#B123E1" stop-opacity="0" offset="0%"></stop>
            <stop stop-color="#790FBF" offset="100%"></stop>
        </linearGradient>
        <linearGradient x1="50%" y1="122.401682%" x2="50%" y2="-10.3127767%" id="linearGradient-6">
            <stop stop-color="#FB0A22" stop-opacity="0" offset="0%"></stop>
            <stop stop-color="#790FBF" offset="100%"></stop>
        </linearGradient>
        <filter x="-0.4%" y="-5.0%" width="100.8%" height="112.5%" filterUnits="objectBoundingBox" id="filter-7">
            <feOffset dx="0" dy="1" in="SourceAlpha" result="shadowOffsetOuter1"></feOffset>
            <feGaussianBlur stdDeviation="0.5" in="shadowOffsetOuter1" result="shadowBlurOuter1"></feGaussianBlur>
            <feColorMatrix values="0 0 0 0 0.525149114   0 0 0 0 0.0843377927   0 0 0 0 0.822890094  0 0 0 1 0" type="matrix" in="shadowBlurOuter1" result="shadowMatrixOuter1"></feColorMatrix>
            <feMerge>
                <feMergeNode in="shadowMatrixOuter1"></feMergeNode>
                <feMergeNode in="SourceGraphic"></feMergeNode>
            </feMerge>
        </filter>
        <path d="M7.88,13 C9.32,15.68 10.68,18.64 12.04,21.92 L8.12,23.84 C6.84,20.52 5.44,17.52 4,14.88 L7.88,13 Z" id="path-8"></path>
        <filter x="-24.9%" y="-9.2%" width="149.8%" height="136.9%" filterUnits="objectBoundingBox" id="filter-9">
            <feOffset dx="0" dy="1" in="SourceAlpha" result="shadowOffsetOuter1"></feOffset>
            <feGaussianBlur stdDeviation="0.5" in="shadowOffsetOuter1" result="shadowBlurOuter1"></feGaussianBlur>
            <feColorMatrix values="0 0 0 0 0.682352941   0 0 0 0 0.243137255   0 0 0 0 0.976470588  0 0 0 0.6 0" type="matrix" in="shadowBlurOuter1"></feColorMatrix>
        </filter>
        <path d="M28.36,13 L32.16,14.8 C31.04,17.88 29.56,20.88 27.76,23.76 L24,21.84 C25.84,18.88 27.28,15.92 28.36,13 Z" id="path-10"></path>
        <filter x="-24.5%" y="-9.3%" width="149.0%" height="137.2%" filterUnits="objectBoundingBox" id="filter-11">
            <feOffset dx="0" dy="1" in="SourceAlpha" result="shadowOffsetOuter1"></feOffset>
            <feGaussianBlur stdDeviation="0.5" in="shadowOffsetOuter1" result="shadowBlurOuter1"></feGaussianBlur>
            <feColorMatrix values="0 0 0 0 0.682352941   0 0 0 0 0.243137255   0 0 0 0 0.976470588  0 0 0 0.6 0" type="matrix" in="shadowBlurOuter1"></feColorMatrix>
        </filter>
        <path d="M183.519999,5 C186.039999,6.68 188.159999,8.4 189.879999,10.16 L187.039999,13 C185.559999,11.32 183.479999,9.48 180.839999,7.56 L183.519999,5 Z" id="path-12"></path>
        <filter x="-22.1%" y="-12.5%" width="144.2%" height="150.0%" filterUnits="objectBoundingBox" id="filter-13">
            <feOffset dx="0" dy="1" in="SourceAlpha" result="shadowOffsetOuter1"></feOffset>
            <feGaussianBlur stdDeviation="0.5" in="shadowOffsetOuter1" result="shadowBlurOuter1"></feGaussianBlur>
            <feColorMatrix values="0 0 0 0 0.682352941   0 0 0 0 0.243137255   0 0 0 0 0.976470588  0 0 0 0.6 0" type="matrix" in="shadowBlurOuter1"></feColorMatrix>
        </filter>
        <rect id="path-14" x="249.493681" y="1.56769569" width="4" height="6"></rect>
        <filter x="-50.0%" y="-16.7%" width="200.0%" height="166.7%" filterUnits="objectBoundingBox" id="filter-15">
            <feOffset dx="0" dy="1" in="SourceAlpha" result="shadowOffsetOuter1"></feOffset>
            <feGaussianBlur stdDeviation="0.5" in="shadowOffsetOuter1" result="shadowBlurOuter1"></feGaussianBlur>
            <feColorMatrix values="0 0 0 0 0.682352941   0 0 0 0 0.243137255   0 0 0 0 0.976470588  0 0 0 0.6 0" type="matrix" in="shadowBlurOuter1"></feColorMatrix>
        </filter>
        <path d="M258.959998,10.68 C263.359998,14.08 267.119998,17.48 270.159998,20.88 L267.079998,24 C264.519998,20.72 260.839998,17.2 256.119998,13.4 L258.959998,10.68 Z" id="path-16"></path>
        <filter x="-14.2%" y="-7.5%" width="128.5%" height="130.0%" filterUnits="objectBoundingBox" id="filter-17">
            <feOffset dx="0" dy="1" in="SourceAlpha" result="shadowOffsetOuter1"></feOffset>
            <feGaussianBlur stdDeviation="0.5" in="shadowOffsetOuter1" result="shadowBlurOuter1"></feGaussianBlur>
            <feColorMatrix values="0 0 0 0 0.682352941   0 0 0 0 0.243137255   0 0 0 0 0.976470588  0 0 0 0.6 0" type="matrix" in="shadowBlurOuter1"></feColorMatrix>
        </filter>
        <path d="M245.239998,10.72 L248.279998,13.36 C245.239998,17.36 241.439998,20.8 236.959998,23.76 L234.279998,20.24 C238.599998,17.52 242.279998,14.36 245.239998,10.72 Z" id="path-18"></path>
        <filter x="-14.3%" y="-7.7%" width="128.6%" height="130.7%" filterUnits="objectBoundingBox" id="filter-19">
            <feOffset dx="0" dy="1" in="SourceAlpha" result="shadowOffsetOuter1"></feOffset>
            <feGaussianBlur stdDeviation="0.5" in="shadowOffsetOuter1" result="shadowBlurOuter1"></feGaussianBlur>
            <feColorMatrix values="0 0 0 0 0.682352941   0 0 0 0 0.243137255   0 0 0 0 0.976470588  0 0 0 0.6 0" type="matrix" in="shadowBlurOuter1"></feColorMatrix>
        </filter>
        <path d="M456.799996,4 C459.159996,5.96 461.159996,7.92 462.839996,9.88 L459.999996,12.68 C458.639996,10.8 456.719996,8.76 454.159996,6.56 L456.799996,4 Z" id="path-20"></path>
        <filter x="-23.0%" y="-11.5%" width="146.1%" height="146.1%" filterUnits="objectBoundingBox" id="filter-21">
            <feOffset dx="0" dy="1" in="SourceAlpha" result="shadowOffsetOuter1"></feOffset>
            <feGaussianBlur stdDeviation="0.5" in="shadowOffsetOuter1" result="shadowBlurOuter1"></feGaussianBlur>
            <feColorMatrix values="0 0 0 0 0.678431373   0 0 0 0 0.207843137   0 0 0 0 0.992156863  0 0 0 0.4 0" type="matrix" in="shadowBlurOuter1"></feColorMatrix>
        </filter>
        <rect id="path-22" x="328.493681" y="0.567695689" width="4" height="6"></rect>
        <filter x="-50.0%" y="-16.7%" width="200.0%" height="166.7%" filterUnits="objectBoundingBox" id="filter-23">
            <feOffset dx="0" dy="1" in="SourceAlpha" result="shadowOffsetOuter1"></feOffset>
            <feGaussianBlur stdDeviation="0.5" in="shadowOffsetOuter1" result="shadowBlurOuter1"></feGaussianBlur>
            <feColorMatrix values="0 0 0 0 0.682352941   0 0 0 0 0.243137255   0 0 0 0 0.976470588  0 0 0 0.6 0" type="matrix" in="shadowBlurOuter1"></feColorMatrix>
        </filter>
        <polygon id="path-24" points="468.239642 5 468.199996 8.91609284 481.203594 8.93362057 481.211315 5.04329768"></polygon>
        <filter x="-15.4%" y="-25.4%" width="130.7%" height="201.7%" filterUnits="objectBoundingBox" id="filter-25">
            <feOffset dx="0" dy="1" in="SourceAlpha" result="shadowOffsetOuter1"></feOffset>
            <feGaussianBlur stdDeviation="0.5" in="shadowOffsetOuter1" result="shadowBlurOuter1"></feGaussianBlur>
            <feColorMatrix values="0 0 0 0 0.682352941   0 0 0 0 0.243137255   0 0 0 0 0.976470588  0 0 0 0.6 0" type="matrix" in="shadowBlurOuter1"></feColorMatrix>
        </filter>
    </defs>
    <g id="外汇移动web1.0" stroke="none" stroke-width="1" fill="none" fill-rule="evenodd">
        <g id="2.2.2.1.晋级IB成功" transform="translate(0.000000, -712.000000)">
            <g id="申请代理banner" transform="translate(0.000000, 712.000000)">
                <g id="Oval-10-+-Oval-10-+-Oval-10-Copy-Mask">
                    <mask id="mask-2" fill="white">
                        <use xlink:href="#path-1"></use>
                    </mask>
                    <use id="Mask" fill="#AD35FD" xlink:href="#path-1"></use>
                    <g id="Oval-10" mask="url(#mask-2)" transform="translate(166.111480, -22.435674) rotate(-10.000000) translate(-166.111480, 22.435674) ">
                        <use fill="black" fill-opacity="1" filter="url(#filter-4)" xlink:href="#path-3"></use>
                        <use fill="#B64BFC" fill-rule="evenodd" xlink:href="#path-3"></use>
                    </g>
                    <ellipse id="Oval-10-Copy" fill="#9D26EC" mask="url(#mask-2)" transform="translate(619.111480, 248.564326) rotate(-10.000000) translate(-619.111480, -248.564326) " cx="619.11148" cy="248.564326" rx="328.007241" ry="138.713842"></ellipse>
                    <path d="M19,169 L19,169 C20.6568542,169 22,170.343146 22,172 L22,172 C22,173.656854 20.6568542,175 19,175 C17.3431458,175 16,173.656854 16,172 L16,172 L16,172 C16,170.343146 17.3431458,169 19,169 L19,169 Z M19,179 L19,179 C20.6568542,179 22,180.343146 22,182 C22,183.656854 20.6568542,185 19,185 C17.3431458,185 16,183.656854 16,182 C16,180.343146 17.3431458,179 19,179 L19,179 Z M19,189 L19,189 C20.6568542,189 22,190.343146 22,192 C22,193.656854 20.6568542,195 19,195 C17.3431458,195 16,193.656854 16,192 C16,190.343146 17.3431458,189 19,189 L19,189 Z M19,199 L19,199 C20.6568542,199 22,200.343146 22,202 C22,203.656854 20.6568542,205 19,205 C17.3431458,205 16,203.656854 16,202 C16,200.343146 17.3431458,199 19,199 L19,199 Z M39,169 C40.6568542,169 42,170.343146 42,172 L42,172 C42,173.656854 40.6568542,175 39,175 C37.3431458,175 36,173.656854 36,172 L36,172 L36,172 C36,170.343146 37.3431458,169 39,169 Z M39,179 C40.6568542,179 42,180.343146 42,182 C42,183.656854 40.6568542,185 39,185 C37.3431458,185 36,183.656854 36,182 C36,180.343146 37.3431458,179 39,179 Z M39,189 C40.6568542,189 42,190.343146 42,192 C42,193.656854 40.6568542,195 39,195 C37.3431458,195 36,193.656854 36,192 C36,190.343146 37.3431458,189 39,189 Z M39,199 C40.6568542,199 42,200.343146 42,202 C42,203.656854 40.6568542,205 39,205 C37.3431458,205 36,203.656854 36,202 C36,200.343146 37.3431458,199 39,199 Z M29,169 C30.6568542,169 32,170.343146 32,172 L32,172 C32,173.656854 30.6568542,175 29,175 C27.3431458,175 26,173.656854 26,172 L26,172 L26,172 C26,170.343146 27.3431458,169 29,169 Z M29,179 C30.6568542,179 32,180.343146 32,182 C32,183.656854 30.6568542,185 29,185 C27.3431458,185 26,183.656854 26,182 C26,180.343146 27.3431458,179 29,179 Z M29,189 C30.6568542,189 32,190.343146 32,192 C32,193.656854 30.6568542,195 29,195 C27.3431458,195 26,193.656854 26,192 C26,190.343146 27.3431458,189 29,189 Z M29,199 C30.6568542,199 32,200.343146 32,202 C32,203.656854 30.6568542,205 29,205 C27.3431458,205 26,203.656854 26,202 C26,200.343146 27.3431458,199 29,199 Z M49,169 C50.6568542,169 52,170.343146 52,172 L52,172 C52,173.656854 50.6568542,175 49,175 C47.3431458,175 46,173.656854 46,172 L46,172 L46,172 C46,170.343146 47.3431458,169 49,169 Z M49,179 C50.6568542,179 52,180.343146 52,182 C52,183.656854 50.6568542,185 49,185 C47.3431458,185 46,183.656854 46,182 C46,180.343146 47.3431458,179 49,179 Z M49,189 C50.6568542,189 52,190.343146 52,192 C52,193.656854 50.6568542,195 49,195 C47.3431458,195 46,193.656854 46,192 C46,190.343146 47.3431458,189 49,189 Z M49,199 C50.6568542,199 52,200.343146 52,202 C52,203.656854 50.6568542,205 49,205 C47.3431458,205 46,203.656854 46,202 C46,200.343146 47.3431458,199 49,199 Z" id="Combined-Shape" fill="url(#linearGradient-5)" opacity="0.547441123" mask="url(#mask-2)"></path>
                    <path d="M687,-10 L687,-10 C688.656854,-10 690,-8.65685425 690,-7 L690,-7 C690,-5.34314575 688.656854,-4 687,-4 C685.343146,-4 684,-5.34314575 684,-7 L684,-7 L684,-7 C684,-8.65685425 685.343146,-10 687,-10 L687,-10 Z M687,0 L687,0 C688.656854,0 690,1.34314575 690,3 C690,4.65685425 688.656854,6 687,6 C685.343146,6 684,4.65685425 684,3 C684,1.34314575 685.343146,0 687,0 L687,0 Z M687,10 L687,10 C688.656854,10 690,11.3431458 690,13 C690,14.6568542 688.656854,16 687,16 C685.343146,16 684,14.6568542 684,13 C684,11.3431458 685.343146,10 687,10 L687,10 Z M687,20 L687,20 C688.656854,20 690,21.3431458 690,23 C690,24.6568542 688.656854,26 687,26 C685.343146,26 684,24.6568542 684,23 C684,21.3431458 685.343146,20 687,20 L687,20 Z M707,-10 C708.656854,-10 710,-8.65685425 710,-7 L710,-7 C710,-5.34314575 708.656854,-4 707,-4 C705.343146,-4 704,-5.34314575 704,-7 L704,-7 L704,-7 C704,-8.65685425 705.343146,-10 707,-10 Z M707,0 C708.656854,0 710,1.34314575 710,3 C710,4.65685425 708.656854,6 707,6 C705.343146,6 704,4.65685425 704,3 C704,1.34314575 705.343146,0 707,0 Z M707,10 C708.656854,10 710,11.3431458 710,13 C710,14.6568542 708.656854,16 707,16 C705.343146,16 704,14.6568542 704,13 C704,11.3431458 705.343146,10 707,10 Z M707,20 C708.656854,20 710,21.3431458 710,23 C710,24.6568542 708.656854,26 707,26 C705.343146,26 704,24.6568542 704,23 C704,21.3431458 705.343146,20 707,20 Z M697,-10 C698.656854,-10 700,-8.65685425 700,-7 L700,-7 C700,-5.34314575 698.656854,-4 697,-4 C695.343146,-4 694,-5.34314575 694,-7 L694,-7 L694,-7 C694,-8.65685425 695.343146,-10 697,-10 Z M697,0 C698.656854,0 700,1.34314575 700,3 C700,4.65685425 698.656854,6 697,6 C695.343146,6 694,4.65685425 694,3 C694,1.34314575 695.343146,0 697,0 Z M697,10 C698.656854,10 700,11.3431458 700,13 C700,14.6568542 698.656854,16 697,16 C695.343146,16 694,14.6568542 694,13 C694,11.3431458 695.343146,10 697,10 Z M697,20 C698.656854,20 700,21.3431458 700,23 C700,24.6568542 698.656854,26 697,26 C695.343146,26 694,24.6568542 694,23 C694,21.3431458 695.343146,20 697,20 Z M717,-10 C718.656854,-10 720,-8.65685425 720,-7 L720,-7 C720,-5.34314575 718.656854,-4 717,-4 C715.343146,-4 714,-5.34314575 714,-7 L714,-7 L714,-7 C714,-8.65685425 715.343146,-10 717,-10 Z M717,0 C718.656854,0 720,1.34314575 720,3 C720,4.65685425 718.656854,6 717,6 C715.343146,6 714,4.65685425 714,3 C714,1.34314575 715.343146,0 717,0 Z M717,10 C718.656854,10 720,11.3431458 720,13 C720,14.6568542 718.656854,16 717,16 C715.343146,16 714,14.6568542 714,13 C714,11.3431458 715.343146,10 717,10 Z M717,20 C718.656854,20 720,21.3431458 720,23 C720,24.6568542 718.656854,26 717,26 C715.343146,26 714,24.6568542 714,23 C714,21.3431458 715.343146,20 717,20 Z" id="Combined-Shape-Copy" fill="url(#linearGradient-5)" opacity="0.547441123" mask="url(#mask-2)"></path>
                    <path d="M151,-10 L151,-10 C152.656854,-10 154,-8.65685425 154,-7 L154,-7 C154,-5.34314575 152.656854,-4 151,-4 C149.343146,-4 148,-5.34314575 148,-7 L148,-7 L148,-7 C148,-8.65685425 149.343146,-10 151,-10 L151,-10 Z M151,0 L151,0 C152.656854,0 154,1.34314575 154,3 C154,4.65685425 152.656854,6 151,6 C149.343146,6 148,4.65685425 148,3 C148,1.34314575 149.343146,0 151,0 L151,0 Z M151,10 L151,10 C152.656854,10 154,11.3431458 154,13 C154,14.6568542 152.656854,16 151,16 C149.343146,16 148,14.6568542 148,13 C148,11.3431458 149.343146,10 151,10 L151,10 Z M151,20 L151,20 C152.656854,20 154,21.3431458 154,23 C154,24.6568542 152.656854,26 151,26 C149.343146,26 148,24.6568542 148,23 C148,21.3431458 149.343146,20 151,20 L151,20 Z M171,-10 C172.656854,-10 174,-8.65685425 174,-7 L174,-7 C174,-5.34314575 172.656854,-4 171,-4 C169.343146,-4 168,-5.34314575 168,-7 L168,-7 L168,-7 C168,-8.65685425 169.343146,-10 171,-10 Z M171,0 C172.656854,0 174,1.34314575 174,3 C174,4.65685425 172.656854,6 171,6 C169.343146,6 168,4.65685425 168,3 C168,1.34314575 169.343146,0 171,0 Z M171,10 C172.656854,10 174,11.3431458 174,13 C174,14.6568542 172.656854,16 171,16 C169.343146,16 168,14.6568542 168,13 C168,11.3431458 169.343146,10 171,10 Z M171,20 C172.656854,20 174,21.3431458 174,23 C174,24.6568542 172.656854,26 171,26 C169.343146,26 168,24.6568542 168,23 C168,21.3431458 169.343146,20 171,20 Z M161,-10 C162.656854,-10 164,-8.65685425 164,-7 L164,-7 C164,-5.34314575 162.656854,-4 161,-4 C159.343146,-4 158,-5.34314575 158,-7 L158,-7 L158,-7 C158,-8.65685425 159.343146,-10 161,-10 Z M161,0 C162.656854,0 164,1.34314575 164,3 C164,4.65685425 162.656854,6 161,6 C159.343146,6 158,4.65685425 158,3 C158,1.34314575 159.343146,0 161,0 Z M161,10 C162.656854,10 164,11.3431458 164,13 C164,14.6568542 162.656854,16 161,16 C159.343146,16 158,14.6568542 158,13 C158,11.3431458 159.343146,10 161,10 Z M161,20 C162.656854,20 164,21.3431458 164,23 C164,24.6568542 162.656854,26 161,26 C159.343146,26 158,24.6568542 158,23 C158,21.3431458 159.343146,20 161,20 Z M181,-10 C182.656854,-10 184,-8.65685425 184,-7 L184,-7 C184,-5.34314575 182.656854,-4 181,-4 C179.343146,-4 178,-5.34314575 178,-7 L178,-7 L178,-7 C178,-8.65685425 179.343146,-10 181,-10 Z M181,0 C182.656854,0 184,1.34314575 184,3 C184,4.65685425 182.656854,6 181,6 C179.343146,6 178,4.65685425 178,3 C178,1.34314575 179.343146,0 181,0 Z M181,10 C182.656854,10 184,11.3431458 184,13 C184,14.6568542 182.656854,16 181,16 C179.343146,16 178,14.6568542 178,13 C178,11.3431458 179.343146,10 181,10 Z M181,20 C182.656854,20 184,21.3431458 184,23 C184,24.6568542 182.656854,26 181,26 C179.343146,26 178,24.6568542 178,23 C178,21.3431458 179.343146,20 181,20 Z" id="Combined-Shape-Copy-2" fill="url(#linearGradient-6)" opacity="0.547441123" mask="url(#mask-2)"></path>
                    <circle id="Oval" stroke="#2AADF0" stroke-width="4" mask="url(#mask-2)" cx="52" cy="132" r="7"></circle>
                    <circle id="Oval-Copy-3" stroke-opacity="0.471042799" stroke="#FF7A04" stroke-width="4" mask="url(#mask-2)" cx="750" cy="26" r="7"></circle>
                    <circle id="Oval-Copy-2" stroke="#E2F977" stroke-width="4" mask="url(#mask-2)" cx="342" cy="200" r="7"></circle>
                    <circle id="Oval-Copy" stroke="#2AADF0" stroke-width="2" mask="url(#mask-2)" cx="439" cy="26" r="4"></circle>
                    <polygon id="Triangle" fill="#FE4949" mask="url(#mask-2)" points="686 161 693 170 679 170"></polygon>
                    <polygon id="Triangle-Copy" fill="#FEA249" mask="url(#mask-2)" points="59 35 52 26 66 26"></polygon>
                </g>
                <g id="Group" filter="url(#filter-7)" transform="translate(123.000000, 46.000000)">
                    <polygon id="Path" fill="#FFFFFF" points="1.72 3.56 34.4 3.56 34.4 7.64 19.96 7.64 19.96 21.4 35.88 21.4 35.88 25.44 19.96 25.44 19.96 39.12 15.72 39.12 15.72 25.44 0.12 25.44 0.12 21.4 15.72 21.4 15.72 7.64 1.72 7.64"></polygon>
                    <g id="Path">
                        <use fill="black" fill-opacity="1" filter="url(#filter-9)" xlink:href="#path-8"></use>
                        <use fill="#FFFFFF" fill-rule="evenodd" xlink:href="#path-8"></use>
                    </g>
                    <g id="Path">
                        <use fill="black" fill-opacity="1" filter="url(#filter-11)" xlink:href="#path-10"></use>
                        <use fill="#FFFFFF" fill-rule="evenodd" xlink:href="#path-10"></use>
                    </g>
                    <path d="M70.8399997,22.08 L70.8399997,39.24 L66.5999997,39.24 L66.5999997,37.72 L47.4799997,37.72 L47.4799997,39.24 L43.2399997,39.24 L43.2399997,22.08 L70.8399997,22.08 Z M47.4799997,33.72 L66.5999997,33.72 L66.5999997,26.08 L47.4799997,26.08 L47.4799997,33.72 Z" id="Combined-Shape" fill="#FFFFFF"></path>
                    <path d="M40.7199997,18.52 C50.9199997,18.16 60.1999997,17.6 68.5199997,16.84 C69.4399997,18.36 70.3599997,19.92 71.2399997,21.56 L75.3199997,19.56 C72.4399997,14.72 69.4399997,10.32 66.2399997,6.32 L62.4399997,8.12 C63.6799997,9.68 64.9199997,11.36 66.1199997,13.12 C59.9599997,13.68 53.6399997,14.12 47.1599997,14.44 C50.4399997,11.4 53.5999997,7.72 56.6799997,3.48 L52.3599997,1.96 C46.9199997,9.92 42.7599997,14.12 39.9599997,14.56 L40.7199997,18.52 Z" id="Path" fill="#FFFFFF"></path>
                    <path d="M94.5999993,2.04 L97.5599993,2.04 C102.559999,7.16 108.319999,11.2 114.839999,14.16 L112.759999,17.88 C110.839999,16.96 108.999999,15.96 107.239999,14.88 L107.239999,18.48 L98.1999993,18.48 L98.1999993,24.08 L109.319999,24.08 L109.319999,28.12 L98.1999993,28.12 L98.1999993,34.04 L112.959999,34.04 L112.959999,38.12 L79.2399993,38.12 L79.2399993,34.04 L93.9599993,34.04 L93.9599993,28.12 L82.7999993,28.12 L82.7999993,24.08 L93.9599993,24.08 L93.9599993,18.48 L84.9199993,18.48 L84.9199993,14.84 C83.1199993,15.96 81.2399993,17 79.2399993,17.96 L77.1999993,14.24 C84.1599993,10.96 89.9599993,6.92 94.5999993,2.04 Z M85.5599993,14.44 L106.559999,14.44 C102.599999,11.96 99.1199993,9.08 96.0799993,5.84 C93.1599993,9 89.6399993,11.88 85.5599993,14.44 Z" id="Combined-Shape" fill="#FFFFFF"></path>
                    <path d="M123.479999,10.36 L119.719999,11.72 C120.479999,13.24 121.159999,14.88 121.719999,16.56 L116.959999,16.56 L116.959999,20.56 L137.119999,20.56 L137.119999,16.56 L133.039999,16.56 C133.799999,15.08 134.519999,13.4 135.159999,11.48 L131.359999,10.16 C130.679999,12.44 129.879999,14.56 128.959999,16.56 L125.679999,16.56 C124.999999,14.16 124.279999,12.08 123.479999,10.36 Z" id="Path" fill="#FFFFFF"></path>
                    <path d="M138.599999,3.4 L138.599999,39.08 L142.639999,39.08 L142.639999,7.24 L148.159999,7.24 C146.879999,11.36 145.599999,14.88 144.279999,17.84 C147.399999,21.48 148.999999,24.44 149.039999,26.72 C148.999999,28.08 148.919999,28.96 148.759999,29.36 C148.519999,29.8 148.079999,30.04 147.439999,30.08 C146.359999,30.08 145.039999,29.96 143.479999,29.8 L144.799999,34.2 C148.199999,34.2 150.479999,33.64 151.599999,32.56 C152.639999,31.48 153.199999,29.52 153.199999,26.72 C153.159999,24.4 151.679999,21.44 148.719999,17.84 C150.159999,14.4 151.519999,10.6 152.759999,6.52 L152.759999,3.4 L138.599999,3.4 Z" id="Path" fill="#FFFFFF"></path>
                    <path d="M117.719999,5.64 L117.719999,9.64 L136.759999,9.64 L136.759999,5.64 L128.959999,5.64 C128.639999,4.28 128.319999,3 127.999999,1.88 L123.719999,2.6 C124.119999,3.52 124.479999,4.52 124.839999,5.64 L117.719999,5.64 Z" id="Path" fill="#FFFFFF"></path>
                    <path d="M135.639999,23.2 L135.639999,39.08 L131.479999,39.08 L131.479999,37.12 L123.119999,37.12 L123.119999,39.08 L119.039999,39.08 L119.039999,23.2 L135.639999,23.2 Z M123.119999,33.16 L131.479999,33.16 L131.479999,27.16 L123.119999,27.16 L123.119999,33.16 Z" id="Combined-Shape" fill="#FFFFFF"></path>
                    <path d="M160.439999,18.08 C159.279999,19.48 158.039999,20.84 156.759999,22.2 L155.479999,18.08 C159.479999,13.56 162.479999,8.24 164.399999,2.12 L168.199999,3.92 C167.279999,6.72 166.079999,9.44 164.599999,12 L164.599999,39.16 L160.439999,39.16 L160.439999,18.08 Z" id="Path" fill="#FFFFFF"></path>
                    <path d="M166.639999,11.48 L174.479999,11.48 C174.479999,10.88 174.519999,10.28 174.519999,9.68 L174.519999,2.28 L178.559999,2.28 L178.559999,9.68 C178.559999,10.32 178.519999,10.92 178.519999,11.48 L191.479999,11.48 L191.479999,15.48 L183.559999,15.48 L183.559999,33.88 C183.559999,34.44 183.839999,34.72 184.399999,34.72 L187.359999,34.72 C187.679999,34.72 187.959999,34.48 188.279999,34.08 C188.519999,33.64 188.719999,31.76 188.839999,28.44 L192.559999,29.68 C192.159999,34 191.719999,36.56 191.159999,37.28 C190.479999,38.04 189.559999,38.44 188.399999,38.52 L183.279999,38.52 C180.799999,38.52 179.599999,37.2 179.599999,34.64 L179.599999,15.48 L178.279999,15.48 C177.319999,25.96 174.039999,33.84 168.439999,39.12 L165.319999,36.4 C170.359999,31.76 173.359999,24.8 174.239999,15.48 L166.639999,15.48 L166.639999,11.48 Z" id="Path" fill="#FFFFFF"></path>
                    <g id="Path">
                        <use fill="black" fill-opacity="1" filter="url(#filter-13)" xlink:href="#path-12"></use>
                        <use fill="#FFFFFF" fill-rule="evenodd" xlink:href="#path-12"></use>
                    </g>
                    <path d="M202.519998,14.6 L202.519998,17.48 C202.319998,26.48 200.599998,33.64 197.319998,39 L194.399998,35.96 C196.919998,31.52 198.279998,25.36 198.479998,17.48 L198.479998,4.68 C209.279998,4.56 218.879998,3.72 227.279998,2.12 L229.319998,5.84 C221.359998,7.2 212.439998,8 202.519998,8.16 L202.519998,10.76 L214.759998,10.76 L215.119998,7.8 L219.279998,8.32 C219.199998,9.12 219.079998,9.96 218.959998,10.76 L231.079998,10.76 L231.079998,14.6 L218.319998,14.6 L217.719998,17.2 L227.799998,17.2 L227.799998,31.28 L223.759998,31.28 L223.759998,21.04 L209.239998,21.04 L209.239998,31.28 L205.199998,31.28 L205.199998,17.2 L213.479998,17.2 L214.079998,14.6 L202.519998,14.6 Z" id="Path" fill="#FFFFFF"></path>
                    <path d="M219.159998,29.96 C223.559998,31.48 227.519998,33.36 231.119998,35.56 L228.799998,39.2 C224.999998,36.6 221.079998,34.56 217.079998,33.08 L219.159998,29.96 Z" id="Path" fill="#FFFFFF"></path>
                    <path d="M215.319998,22.2 L219.359998,22.48 C218.879998,27.2 217.439998,30.84 214.959998,33.32 C212.439998,35.84 208.599998,37.84 203.399998,39.28 L201.159998,35.44 C205.799998,34.32 209.199998,32.8 211.399998,30.8 C213.559998,28.8 214.879998,25.92 215.319998,22.2 Z" id="Path" fill="#FFFFFF"></path>
                    <path d="M234.399998,6.48 L234.399998,10.44 L270.119998,10.44 L270.119998,6.48 L254.679998,6.48 C252.259998,6.48 252.55873,6.48 250.039998,6.48 L234.399998,6.48 Z" id="Path" fill="#FFFFFF"></path>
                    <g id="Rectangle-2" transform="translate(251.493681, 4.567696) rotate(-42.000000) translate(-251.493681, -4.567696) ">
                        <use fill="black" fill-opacity="1" filter="url(#filter-15)" xlink:href="#path-14"></use>
                        <use fill="#FFFFFF" fill-rule="evenodd" xlink:href="#path-14"></use>
                    </g>
                    <path d="M259.771485,15.2365063 L263.050611,17.7148053 C261.250611,21.1548053 258.199998,26.4 255.639998,28.96 C259.719998,31.72 264.759998,33.84 270.679998,35.32 L268.079998,39.24 C261.919998,37.52 256.679998,35.04 252.399998,31.84 C247.999998,35.28 242.759998,37.76 236.599998,39.36 L233.999998,35.52 C239.919998,34.08 244.919998,31.88 248.999998,29 C246.359998,26.52 243.479356,21.4 241.719356,18.24 L244.877724,15.2365063 C246.477724,18.1965063 249.639998,24.04 252.239998,26.32 C254.719998,23.96 258.171485,18.2765063 259.771485,15.2365063 Z" id="Path" fill="#FFFFFF"></path>
                    <g id="Path">
                        <use fill="black" fill-opacity="1" filter="url(#filter-17)" xlink:href="#path-16"></use>
                        <use fill="#FFFFFF" fill-rule="evenodd" xlink:href="#path-16"></use>
                    </g>
                    <g id="Path">
                        <use fill="black" fill-opacity="1" filter="url(#filter-19)" xlink:href="#path-18"></use>
                        <use fill="#FFFFFF" fill-rule="evenodd" xlink:href="#path-18"></use>
                    </g>
                    <path d="M283.439998,18.44 L278.719998,18.44 L278.719998,3.36 L304.039998,3.36 L304.039998,18.44 L288.319998,18.44 C287.759998,19.24 287.159998,20.04 286.519998,20.76 L307.079998,20.76 C306.959998,25.16 306.719998,28.72 306.359998,31.44 C305.959998,34.12 305.319998,36 304.479998,37.08 C303.639998,38.12 302.279998,38.68 300.359998,38.76 L294.639998,38.76 L293.599998,34.84 C295.239998,34.96 296.839998,35.04 298.359998,35.04 C300.079998,35.04 301.199998,34.36 301.759998,33.08 C302.319998,31.72 302.679998,28.84 302.839998,24.44 L299.999998,24.44 C296.559998,31.8 291.119998,36.72 283.759998,39.12 L281.399998,35.6 C287.879998,33.6 292.639998,29.88 295.679998,24.44 L291.799998,24.44 C288.999998,28.68 284.559998,32.04 278.479998,34.48 L275.839998,31.24 C280.959998,29.44 284.759998,27.16 287.239998,24.44 L282.439998,24.44 C280.519998,25.8 278.399998,27.04 276.039998,28.16 L273.759998,24.48 C278.039998,22.88 281.279998,20.84 283.439998,18.44 Z M299.919998,14.92 L299.919998,12.52 L282.839998,12.52 L282.839998,14.92 L299.919998,14.92 Z M282.839998,9.24 L299.919998,9.24 L299.919998,6.88 L282.839998,6.88 L282.839998,9.24 Z" id="Combined-Shape" fill="#FFFFFF"></path>
                    <path d="M322.319997,24.48 C321.639997,24.96 320.959997,25.4 320.319997,25.8 L317.999997,22.8 L317.999997,38.88 L313.959997,38.88 L313.959997,12.72 L322.199997,12.72 C321.679997,11.36 321.119997,10.12 320.479997,8.92 L312.439997,8.92 L312.439997,4.92 L327.959997,4.92 C330.319997,4.92 330.319997,4.92 332.559997,4.92 L348.199997,4.92 L348.199997,8.92 L339.839997,8.92 C339.279997,10.28 338.679997,11.56 338.039997,12.72 L346.599997,12.72 L346.599997,34.12 C346.599997,37.32 345.199997,38.96 342.479997,38.96 L338.399997,38.96 L337.359997,35.2 L341.199997,35.36 C342.079997,35.36 342.559997,34.64 342.559997,33.24 L342.559997,22.84 L339.639997,25.72 C339.199997,25.2 338.759997,24.72 338.279997,24.24 L338.279997,34.6 L322.319997,34.6 L322.319997,24.48 Z M342.559997,22.36 L342.559997,16.4 L335.079997,16.4 C337.959997,18.44 340.479997,20.44 342.559997,22.36 Z M334.479997,16.4 L325.879997,16.4 L328.559997,18.8 C326.999997,20.64 325.239997,22.32 323.239997,23.8 L337.839997,23.8 C336.199997,22.2 334.239997,20.56 331.919997,18.88 L334.479997,16.4 Z M325.439997,16.4 L317.999997,16.4 L317.999997,22.12 C320.959997,20.48 323.439997,18.56 325.439997,16.4 Z M326.479997,12.72 L333.519997,12.72 C334.159997,11.48 334.719997,10.2 335.279997,8.92 L325.039997,8.92 C325.519997,10.12 325.999997,11.36 326.479997,12.72 Z M334.239997,30.92 L334.239997,27.48 L326.359997,27.48 L326.359997,30.92 L334.239997,30.92 Z" id="Combined-Shape" fill="#FFFFFF"></path>
                    <polygon id="Path" fill="#FFFFFF" points="351.159997 18.24 351.159997 22.4 387.519997 22.4 387.519997 18.24"></polygon>
                    <path d="M392.279997,17.12 L389.599997,15.4 C391.359997,11.24 392.559997,6.76 393.279997,2.04 L397.199997,2.88 C396.959997,4.08 396.759997,5.2 396.519997,6.24 L401.759997,6.24 L401.759997,10.2 L395.479997,10.2 C395.039997,11.68 394.559997,13.08 394.079997,14.4 L401.799997,14.4 L401.799997,18.08 L398.719997,18.08 L398.719997,21.88 L402.399997,21.88 L402.399997,23.44 L404.959997,22.48 C405.319997,24.2 405.839997,25.8 406.559997,27.24 C407.119997,25.04 407.439997,22.6 407.599997,19.92 L403.039997,19.92 L403.039997,17.08 C404.479997,14.56 405.759997,11.88 406.959997,9.08 L403.079997,9.08 L403.079997,5.56 L410.679997,5.56 L410.679997,8.92 C409.479997,11.88 408.359997,14.44 407.239997,16.6 L410.919997,16.6 L410.919997,18.8 C410.839997,23.6 410.239997,27.68 409.119997,31.12 C410.039997,32.08 411.039997,32.8 412.119997,33.32 C413.879997,34.12 416.599997,34.64 420.199997,34.8 C422.439997,34.8 424.679997,34.72 426.959997,34.6 L426.199997,38.56 L422.239997,38.56 C416.079997,38.48 411.879997,37.76 409.639997,36.4 C408.919997,35.92 408.239997,35.4 407.599997,34.84 C406.799997,36.4 405.839997,37.8 404.759997,39 L401.959997,36.2 C403.239997,34.92 404.279997,33.36 405.079997,31.6 C403.999997,29.84 403.119997,27.76 402.399997,25.36 L402.399997,25.64 L398.719997,25.64 L398.719997,33.24 C399.759997,32.6 400.839997,31.84 401.919997,30.92 L402.599997,34.44 C400.479997,35.96 398.039997,37.24 395.279997,38.28 L393.639997,34.8 C394.519997,34.44 394.959997,33.92 394.959997,33.2 L394.959997,25.64 L390.879997,25.64 L390.879997,21.88 L394.959997,21.88 L394.959997,18.08 L392.279997,18.08 L392.279997,17.12 Z" id="Path" fill="#FFFFFF"></path>
                    <path d="M424.879997,19.6 L419.359997,19.6 L419.359997,21.8 L425.159997,21.8 L425.159997,25 L419.359997,25 L419.359997,27.32 L426.119997,27.32 L426.119997,30.68 L419.359997,30.68 L419.359997,33.64 L415.639997,33.64 L415.639997,30.68 L410.879997,30.68 L410.879997,27.32 L415.639997,27.32 L415.639997,25 L411.879997,25 L411.879997,21.8 L415.639997,21.8 L415.639997,19.6 L412.199997,19.6 L412.199997,16.32 L415.639997,16.32 L415.639997,14.04 L410.799997,14.04 L410.799997,10.76 L415.639997,10.76 L415.639997,8.32 L412.119997,8.32 L412.119997,5.04 L415.639997,5.04 L415.639997,2.4 L419.359997,2.4 L419.359997,5.04 L424.879997,5.04 L424.879997,10.76 L426.439997,10.76 L426.439997,14.04 L424.879997,14.04 L424.879997,19.6 Z M419.359997,8.32 L419.359997,10.76 L421.439997,10.76 L421.439997,8.32 L419.359997,8.32 Z M419.359997,14.04 L419.359997,16.32 L421.439997,16.32 L421.439997,14.04 L419.359997,14.04 Z" id="Combined-Shape" fill="#FFFFFF"></path>
                    <path d="M463.919996,11.12 L464.599996,15.08 L451.839996,16.84 C452.039996,18.84 452.279996,20.6 452.599996,22.12 C453.479996,26.28 454.679996,29.48 456.199996,31.64 C457.599996,33.72 458.919996,34.8 460.159996,34.88 C461.039996,34.8 461.719996,32.44 462.159996,27.76 L465.799996,29.88 C465.239996,33.16 464.519996,35.56 463.599996,37.16 C462.799996,38.44 461.719996,39.08 460.399996,39.12 C458.399996,39.12 456.319996,37.8 454.159996,35.24 C451.799996,32.44 450.039996,28.76 448.879996,24.2 C448.399996,22.36 448.039996,20.08 447.759996,17.4 L439.519996,18.56 L438.879996,14.6 L447.399996,13.4 C447.159996,10.08 446.999996,6.28 446.919996,2.04 L451.159996,2.04 C451.159996,6.12 451.279996,9.72 451.519996,12.84 L463.919996,11.12 Z" id="Path" fill="#FFFFFF"></path>
                    <path d="M433.519996,18.36 C432.399996,19.68 431.239996,21 429.999996,22.28 L428.639996,17.92 C432.679996,13.4 435.679996,8.08 437.599996,1.92 L441.519996,3.76 C440.559996,6.72 439.279996,9.52 437.759996,12.16 L437.759996,39.24 L433.519996,39.24 L433.519996,18.36 Z" id="Path" fill="#FFFFFF"></path>
                    <g id="Path">
                        <use fill="black" fill-opacity="1" filter="url(#filter-21)" xlink:href="#path-20"></use>
                        <use fill="#FFFFFF" fill-rule="evenodd" xlink:href="#path-20"></use>
                    </g>
                    <path d="M482.639996,3.4 L503.119996,3.4 L503.119996,22.8 L494.999996,22.8 L494.999996,26.48 L503.599996,26.48 L503.599996,30.36 L494.999996,30.36 L494.999996,34.08 L504.959996,34.08 L504.959996,38.12 L480.679996,38.12 L480.679996,34.08 L490.839996,34.08 L490.839996,30.36 L482.199996,30.36 L482.199996,26.48 L490.839996,26.48 L490.839996,22.8 L482.639996,22.8 L482.639996,3.4 Z M499.119996,19.12 L499.119996,14.88 L494.999996,14.88 L494.999996,19.12 L499.119996,19.12 Z M490.839996,19.12 L490.839996,14.88 L486.639996,14.88 L486.639996,19.12 L490.839996,19.12 Z M486.639996,11.32 L490.839996,11.32 L490.839996,7.08 L486.639996,7.08 L486.639996,11.32 Z M494.999996,7.08 L494.999996,11.32 L499.119996,11.32 L499.119996,7.08 L494.999996,7.08 Z" id="Combined-Shape" fill="#FFFFFF"></path>
                    <path d="M468.919996,16.52 L472.719996,16.52 L472.719996,8.36 L476.959996,8.36 L476.959996,16.52 L480.839996,16.52 L480.839996,20.52 L476.959996,20.52 L476.959996,28.08 C478.239996,27.64 479.479996,27.16 480.719996,26.64 L480.719996,30.68 C477.039996,32.12 473.119996,33.32 468.959996,34.32 L467.919996,30.32 C469.559996,30.04 471.159996,29.72 472.719996,29.32 L472.719996,20.52 L468.919996,20.52 L468.919996,16.52 Z" id="Path" fill="#FFFFFF"></path>
                    <g id="Rectangle-2-Copy" transform="translate(330.493681, 3.567696) rotate(-42.000000) translate(-330.493681, -3.567696) ">
                        <use fill="black" fill-opacity="1" filter="url(#filter-23)" xlink:href="#path-22"></use>
                        <use fill="#FFFFFF" fill-rule="evenodd" xlink:href="#path-22"></use>
                    </g>
                    <g id="Path-2">
                        <use fill="black" fill-opacity="1" filter="url(#filter-25)" xlink:href="#path-24"></use>
                        <use fill="#FFFFFF" fill-rule="evenodd" xlink:href="#path-24"></use>
                    </g>
                </g>
                <text id="您选择交易商成为代理后，相应交易商信息即" font-family="PingFangSC-Regular, PingFang SC" font-size="18" font-weight="normal" letter-spacing="-0.432000101" fill="#FFFFFF">
                    <tspan x="111" y="136">您选择交易商成为代理后，相应交易商信息即出现在您的个人主页中</tspan>
                </text>
                <rect id="Rectangle" stroke="#FFFFFF" x="98.5" y="111.5" width="553" height="37" rx="18.5"></rect>
            </g>
        </g>
    </g>
</svg>