<?xml version="1.0" encoding="UTF-8"?>
<svg width="32px" height="32px" viewBox="0 0 32 32" version="1.1" xmlns="http://www.w3.org/2000/svg" xmlns:xlink="http://www.w3.org/1999/xlink">
    <!-- Generator: sketchtool 46.1 (44463) - http://www.bohemiancoding.com/sketch -->
    <title>BE3B5C26-9500-4D83-8051-BCB67F684B76</title>
    <desc>Created with sketchtool.</desc>
    <defs></defs>
    <g id="Page-1" stroke="none" stroke-width="1" fill="none" fill-rule="evenodd">
        <g id="5.1喊单详情" transform="translate(-261.000000, -1269.000000)" fill="#FFFFFF">
            <g id="发布策略信息" transform="translate(0.000000, 1236.000000)">
                <g id="Group" transform="translate(261.000000, 27.000000)">
                    <path d="M14,20 L2,20 L2,20 C0.8954305,20 -1.3527075e-16,20.8954305 0,22 C1.3527075e-16,23.1045695 0.8954305,24 2,24 L14,24 L14,36 C14,37.1045695 14.8954305,38 16,38 C17.1045695,38 18,37.1045695 18,36 L18,24 L30,24 C31.1045695,24 32,23.1045695 32,22 C32,20.8954305 31.1045695,20 30,20 L18,20 L18,8 L18,8 C18,6.8954305 17.1045695,6 16,6 L16,6 L16,6 C14.8954305,6 14,6.8954305 14,8 L14,20 Z" id="发布策略信息"></path>
                </g>
            </g>
        </g>
    </g>
</svg>