<?xml version="1.0" encoding="UTF-8"?>
<svg width="40px" height="40px" viewBox="0 0 40 40" version="1.1" xmlns="http://www.w3.org/2000/svg" xmlns:xlink="http://www.w3.org/1999/xlink">
    <!-- Generator: sketchtool 46.1 (44463) - http://www.bohemiancoding.com/sketch -->
    <title>05FF32E9-6DAE-418D-8813-7E320E2285AD</title>
    <desc>Created with sketchtool.</desc>
    <defs></defs>
    <g id="Page-1" stroke="none" stroke-width="1" fill="none" fill-rule="evenodd">
        <g id="6.1.个人中心首页-喊单" transform="translate(-31.000000, -1179.000000)">
            <g id="Group-3" transform="translate(0.000000, 758.000000)">
                <g id="切图" transform="translate(22.000000, 44.000000)">
                    <g id="ic_me_strategy_default" transform="translate(0.000000, 368.000000)">
                        <path d="M29,9.35483871 C39.849723,9.35483871 48.6451613,18.150277 48.6451613,29 C48.6451613,39.849723 39.849723,48.6451613 29,48.6451613 C18.150277,48.6451613 9.35483871,39.849723 9.35483871,29 C9.35483871,22.7375935 12.2850754,17.1595804 16.8492592,13.5622503 L18.6004361,16.8557352 C15.1793772,19.7880523 13.0117302,24.1408856 13.0117302,29 C13.0117302,37.8300776 20.1699224,44.9882698 29,44.9882698 C37.8300776,44.9882698 44.9882698,37.8300776 44.9882698,29 C44.9882698,20.1699224 37.8300776,13.0117302 29,13.0117302 L29,16.4985337 L25.4281525,16.4985337 L25.4281525,9.35483871 L29,9.35483871 Z" id="Oval-19" fill="#FA4848" fill-rule="nonzero" transform="translate(29.000000, 29.000000) rotate(-45.000000) translate(-29.000000, -29.000000) "></path>
                        <path d="M29.3614148,18.7096774 L32.5292813,28.2757141 L26.1935484,28.2757141 L29.3614148,18.7096774 Z M29.3614148,37.8417508 L26.1935484,28.2757141 L32.5292813,28.2757141 L29.3614148,37.8417508 Z" id="Combined-Shape" fill="#E60230" transform="translate(29.361415, 28.275714) rotate(-315.000000) translate(-29.361415, -28.275714) "></path>
                    </g>
                </g>
            </g>
        </g>
    </g>
</svg>