<?xml version="1.0" encoding="UTF-8"?>
<svg width="361px" height="344px" viewBox="0 0 361 344" version="1.1" xmlns="http://www.w3.org/2000/svg" xmlns:xlink="http://www.w3.org/1999/xlink">
    <!-- Generator: sketchtool 46.1 (44463) - http://www.bohemiancoding.com/sketch -->
    <title>379742BB-F9FC-4400-870D-AE162738FFD7</title>
    <desc>Created with sketchtool.</desc>
    <defs></defs>
    <g id="Page-1" stroke="none" stroke-width="1" fill="none" fill-rule="evenodd">
        <g id="1.1投资人评论-暂无评论" transform="translate(-185.000000, -488.000000)">
            <g id="ic_comment_msg_default" transform="translate(183.000000, 488.000000)">
                <g id="暂无记录" transform="translate(63.000000, 0.000000)">
                    <g id="Group-2" transform="translate(28.000000, 28.000000)">
                        <path d="M134,236 L134,240 L153,240 L6,240 C2.6862915,240 4.05812251e-16,237.313708 0,234 L0,6 C-4.05812251e-16,2.6862915 2.6862915,6.08718376e-16 6,0 L172,0 C175.313708,-6.08718376e-16 178,2.6862915 178,6 L178,215 L178,196 L174,196 L174,6 C174,4.8954305 173.104569,4 172,4 L6,4 C4.8954305,4 4,4.8954305 4,6 L4,234 C4,235.104569 4.8954305,236 6,236 L134,236 Z" id="Combined-Shape" fill="#979797" fill-rule="nonzero"></path>
                        <path d="M146,134.004462 L146.010515,134.004462 L143.010515,128.195407 L140.012819,134 L140,134 L140,136 L146,136 L146,134.004462 Z M140,140 L146,140 L146,248 L140,248 L140,140 Z" id="Combined-Shape" fill="#979797" transform="translate(143.005257, 188.097703) rotate(-30.000000) translate(-143.005257, -188.097703) "></path>
                        <path d="M48,2 L132,2 L132,10 L132,10 C132,11.1045695 131.104569,12 130,12 L50,12 L50,12 C48.8954305,12 48,11.1045695 48,10 L48,2 Z" id="Rectangle-2" fill="#979797"></path>
                        <rect id="Rectangle-44" fill="#D8D8D8" fill-rule="nonzero" x="22" y="59" width="134" height="7" rx="3.5"></rect>
                        <rect id="Rectangle-44-Copy-2" fill="#D8D8D8" x="22" y="119" width="134" height="7" rx="3.5"></rect>
                        <rect id="Rectangle-44-Copy" fill="#D8D8D8" x="22" y="89" width="134" height="7" rx="3.5"></rect>
                        <rect id="Rectangle-44-Copy-3" fill="#D8D8D8" x="22" y="150" width="84" height="7" rx="3.5"></rect>
                        <rect id="Rectangle-44-Copy-5" fill="#D8D8D8" x="134" y="150" width="22" height="7" rx="3.5"></rect>
                        <rect id="Rectangle-44-Copy-4" fill="#D8D8D8" x="22" y="180" width="96" height="7" rx="3.5"></rect>
                    </g>
                    <polygon id="Rectangle-45" fill="#979797" transform="translate(19.210540, 12.749676) rotate(-38.000000) translate(-19.210540, -12.749676) " points="15.1408738 -0.25032373 23.2802055 -0.25032373 21.2170516 25.7496763 16.8051371 25.7496763"></polygon>
                    <polygon id="Rectangle-45-Copy" fill="#979797" transform="translate(32.937732, 10.453749) rotate(-5.000000) translate(-32.937732, -10.453749) " points="28.8680664 0.316118003 37.0073981 0.316118003 34.9442443 20.5913798 30.5323298 20.5913798"></polygon>
                    <polygon id="Rectangle-45-Copy-2" fill="#979797" transform="translate(10.845507, 28.554807) rotate(-75.000000) translate(-10.845507, -28.554807) " points="6.77584068 18.4171764 14.9151724 18.4171764 12.8520185 38.6924382 8.44010404 38.6924382"></polygon>
                </g>
                <text id="暂无评论，快来抢沙发！" font-family="PingFangSC-Regular, PingFang SC" font-size="36" font-weight="normal" letter-spacing="-0.863999963" fill="#959595">
                    <tspan x="0.503999591" y="338">暂无评论，快来抢沙发！</tspan>
                </text>
            </g>
        </g>
    </g>
</svg>